<?xml version="1.0" standalone="no"?>
<!DOCTYPE svg PUBLIC "-//W3C//DTD SVG 20010904//EN"
 "http://www.w3.org/TR/2001/REC-SVG-20010904/DTD/svg10.dtd">
<svg version="1.0" xmlns="http://www.w3.org/2000/svg"
 width="650.000000pt" height="646.000000pt" viewBox="0 0 650.000000 646.000000"
 preserveAspectRatio="xMidYMid meet">

<g transform="translate(0.000000,646.000000) scale(0.100000,-0.100000)"
fill="#000000" stroke="none">
<path d="M0 3230 l0 -3230 3250 0 3250 0 0 3230 0 3230 -3250 0 -3250 0 0
-3230z m3574 2232 c3 -5 -2 -31 -11 -58 -22 -68 -21 -222 1 -299 10 -33 46
-114 80 -180 35 -66 96 -183 136 -260 140 -270 164 -308 214 -333 123 -65 227
-225 245 -377 5 -44 7 -92 4 -107 l-5 -28 -177 0 c-98 0 -181 3 -184 6 -3 4 4
15 18 25 35 28 48 77 35 133 -13 59 -59 152 -94 189 -31 34 -111 70 -187 86
-150 31 -225 117 -198 226 6 25 15 47 19 50 4 3 20 -7 34 -20 15 -14 41 -33
59 -42 36 -19 133 -44 141 -36 3 3 -39 91 -92 197 -189 372 -266 553 -274 641
l-3 30 -112 3 -112 3 -7 -48 c-8 -54 -61 -184 -157 -383 -78 -164 -220 -471
-258 -560 -130 -306 -138 -333 -125 -403 4 -20 17 -46 31 -58 13 -13 21 -27
19 -31 -6 -9 -414 -11 -414 -2 0 4 37 45 83 93 86 91 117 144 205 351 22 52
77 174 121 270 l79 175 -54 16 c-29 9 -73 28 -97 43 -44 25 -107 88 -107 106
0 6 69 10 173 10 l173 0 52 108 c28 59 56 125 61 147 18 67 13 189 -9 252 -11
32 -20 61 -20 65 0 11 707 10 714 0z m-288 -599 l7 -92 81 -3 81 -3 0 -70 0
-70 -82 -3 -83 -3 0 -342 c0 -251 4 -348 13 -366 15 -30 86 -57 191 -72 87
-13 156 -2 225 37 24 13 46 22 49 20 13 -13 -13 -82 -44 -115 -109 -122 -377
-129 -723 -21 -54 17 -111 40 -125 51 -53 42 -18 116 66 141 38 11 82 7 166
-18 18 -5 24 -1 37 30 12 29 15 93 15 345 l0 310 -87 3 -88 3 0 70 0 70 85 5
85 5 5 95 c5 82 21 151 57 250 11 29 63 -163 69 -257z m794 -98 c0 -69 -4
-125 -8 -125 -5 0 -17 9 -27 20 -25 27 -118 70 -152 70 -16 0 -36 6 -45 13
-17 13 -78 121 -78 137 0 6 57 10 155 10 l155 0 0 -125z m-815 -1400 c66 3
130 8 142 12 23 5 23 4 23 -86 0 -50 -4 -91 -8 -91 -5 0 -21 14 -38 31 -41 43
-76 59 -129 59 l-46 0 3 -294 3 -295 29 -30 30 -31 -157 0 c-98 0 -157 4 -157
10 0 6 5 10 10 10 6 0 19 15 30 33 19 30 20 51 20 315 l0 282 -53 0 c-42 0
-63 -6 -100 -30 -26 -16 -50 -37 -53 -45 -8 -19 -34 -20 -34 -1 0 16 29 147
35 156 2 3 77 1 167 -3 89 -4 217 -5 283 -2z m-1386 -135 c54 -141 166 -410
201 -483 13 -27 38 -65 57 -84 18 -20 31 -38 29 -40 -7 -7 -259 -22 -268 -17
-4 3 -8 17 -8 32 0 15 -13 63 -28 107 l-28 80 -155 3 -156 2 -32 -83 c-38
-100 -38 -111 -6 -142 15 -13 22 -26 17 -29 -18 -11 -232 -19 -232 -9 0 6 8
13 18 15 44 12 89 108 297 636 l28 73 -34 35 -33 35 142 -3 143 -3 48 -125z
m633 100 c-23 -22 -31 -41 -34 -77 -6 -67 -6 -416 -1 -487 l5 -59 97 5 c104 5
134 18 216 89 19 17 38 30 40 27 3 -2 -9 -47 -25 -100 l-30 -95 -277 -5 c-257
-5 -328 0 -274 17 45 14 50 44 51 331 0 148 1 279 0 291 0 12 -14 38 -31 58
l-31 35 162 0 162 0 -30 -30z m1434 -117 c180 -465 223 -555 267 -569 49 -16
-18 -24 -142 -18 l-131 7 0 41 c-1 23 -13 73 -28 111 l-28 70 -151 3 c-149 2
-151 2 -156 -20 -3 -13 -15 -50 -27 -82 l-21 -59 21 -29 21 -28 -113 1 c-92 0
-109 2 -93 12 40 25 74 69 98 130 25 63 101 247 162 392 49 118 49 119 19 154
l-26 31 135 0 135 0 58 -147z m789 135 c71 -14 144 -61 167 -108 21 -42 23
-118 4 -163 -17 -41 -74 -91 -121 -107 l-37 -12 40 -42 c22 -22 70 -84 107
-136 84 -118 136 -173 186 -195 21 -10 39 -22 39 -26 0 -17 -86 -31 -152 -26
-127 11 -189 63 -311 260 -72 117 -98 147 -126 147 -7 0 -11 -40 -11 -115 0
-120 14 -179 45 -191 8 -3 15 -10 15 -15 0 -11 -67 -11 -213 -2 -102 6 -129
15 -88 28 11 3 26 21 35 39 13 29 16 78 16 313 0 259 -1 280 -20 311 -11 17
-24 32 -30 32 -5 0 -10 5 -10 10 0 14 392 13 465 -2z m-2727 -952 c52 -8 95
-16 97 -18 4 -4 -23 -137 -31 -150 -3 -5 -21 9 -40 31 -77 90 -213 93 -271 5
-20 -31 -10 -68 27 -96 14 -10 74 -36 133 -58 59 -21 126 -51 149 -67 107 -70
118 -228 24 -318 -87 -83 -224 -121 -377 -105 -117 12 -149 25 -149 58 1 29
25 150 32 157 2 2 19 -17 38 -42 46 -61 107 -93 177 -93 98 0 157 44 157 116
0 43 -33 78 -93 100 -158 57 -190 70 -223 93 -55 39 -83 94 -82 166 0 89 40
151 127 196 76 40 162 46 305 25z m552 -29 c113 -1 222 2 243 6 l37 8 0 -86
c0 -47 -4 -85 -8 -85 -4 0 -23 16 -42 35 -24 25 -47 37 -88 46 -34 7 -58 7
-64 1 -5 -5 -8 -114 -6 -265 3 -250 4 -256 26 -287 13 -17 22 -33 20 -35 -7
-6 -278 -17 -278 -11 0 4 10 20 23 37 21 30 22 39 25 295 l3 264 -45 0 c-57 0
-85 -11 -130 -50 -19 -17 -40 -29 -45 -26 -5 3 -3 34 5 73 21 99 17 95 71 88
27 -4 140 -7 253 -8z m1245 -2 c110 -3 225 -1 255 4 30 5 58 6 63 2 4 -4 4
-42 1 -84 l-7 -76 -50 39 c-43 34 -56 40 -99 40 l-49 0 3 -262 c3 -258 3 -264
27 -296 13 -18 21 -35 18 -38 -6 -6 -267 13 -275 20 -3 4 5 18 19 32 24 26 24
26 27 285 l3 259 -45 0 c-57 0 -90 -13 -134 -51 -19 -17 -36 -28 -39 -25 -5 5
13 122 23 154 3 9 13 12 31 8 16 -3 118 -8 228 -11z m-603 -2 l68 -6 51 -131
c166 -427 162 -419 205 -463 23 -23 40 -44 36 -47 -7 -8 -236 -8 -256 0 -10 4
-16 19 -16 43 -1 20 -9 58 -18 85 -21 60 -29 63 -172 62 l-105 -1 -23 -64 -23
-65 20 -27 c11 -15 17 -29 14 -33 -8 -8 -203 -8 -203 0 0 3 14 17 30 31 35 29
47 50 94 165 19 46 61 149 95 230 34 81 61 152 61 157 0 5 -11 19 -24 32 -14
13 -22 27 -20 31 6 10 94 10 186 1z m1552 -24 c3 -17 6 -56 6 -86 l0 -54 -47
38 c-46 38 -47 38 -149 41 l-102 4 -7 -74 c-4 -40 -5 -91 -3 -113 l3 -40 95 0
c52 0 104 2 115 5 18 5 20 -1 23 -54 4 -84 -1 -93 -40 -64 -26 18 -49 24 -110
27 l-78 3 0 -120 0 -119 38 -7 c120 -19 232 2 290 56 28 27 28 22 0 -79 -27
-98 3 -92 -278 -63 -278 28 -290 30 -290 46 0 8 4 14 8 14 26 0 32 61 32 324
l0 274 -25 23 c-13 13 -25 27 -25 31 0 4 98 9 218 11 119 1 240 3 268 5 50 2
52 1 58 -29z"/>
<path d="M1616 3067 c-31 -78 -56 -145 -56 -149 0 -5 52 -8 115 -8 68 0 115 4
115 10 0 5 -17 54 -39 107 -21 54 -44 115 -50 135 -7 21 -16 40 -21 43 -4 2
-33 -59 -64 -138z"/>
<path d="M3721 3199 c-5 -13 -30 -76 -54 -139 l-46 -115 54 -3 c30 -2 81 -2
114 0 l60 3 -51 130 c-28 72 -54 134 -59 139 -5 5 -12 -1 -18 -15z"/>
<path d="M4520 3140 l0 -140 48 0 c99 0 156 61 149 159 -3 47 -9 59 -40 88
-33 30 -43 33 -97 33 l-60 0 0 -140z"/>
<path d="M3105 2184 c-38 -89 -75 -185 -75 -194 0 -6 40 -10 95 -10 52 0 95 2
95 4 0 9 -87 226 -93 232 -3 3 -13 -11 -22 -32z"/>
</g>
</svg>
